<?xml version="1.0" encoding="utf-8"?>
<svg xmlns="http://www.w3.org/2000/svg" xmlns:xlink="http://www.w3.org/1999/xlink" style="margin: auto; background: none; display: block; shape-rendering: auto;" width="237px" height="237px" viewBox="0 0 100 100" preserveAspectRatio="xMidYMid">
<g transform="rotate(0 50 50)">
  <rect x="49.5" y="21.5" rx="0.19" ry="0.19" width="1" height="19" fill="#000000">
    <animate attributeName="opacity" values="1;0" keyTimes="0;1" dur="0.7407407407407407s" begin="-0.6734006734006733s" repeatCount="indefinite"></animate>
  </rect>
</g><g transform="rotate(32.72727272727273 50 50)">
  <rect x="49.5" y="21.5" rx="0.19" ry="0.19" width="1" height="19" fill="#000000">
    <animate attributeName="opacity" values="1;0" keyTimes="0;1" dur="0.7407407407407407s" begin="-0.606060606060606s" repeatCount="indefinite"></animate>
  </rect>
</g><g transform="rotate(65.45454545454545 50 50)">
  <rect x="49.5" y="21.5" rx="0.19" ry="0.19" width="1" height="19" fill="#000000">
    <animate attributeName="opacity" values="1;0" keyTimes="0;1" dur="0.7407407407407407s" begin="-0.5387205387205387s" repeatCount="indefinite"></animate>
  </rect>
</g><g transform="rotate(98.18181818181819 50 50)">
  <rect x="49.5" y="21.5" rx="0.19" ry="0.19" width="1" height="19" fill="#000000">
    <animate attributeName="opacity" values="1;0" keyTimes="0;1" dur="0.7407407407407407s" begin="-0.47138047138047134s" repeatCount="indefinite"></animate>
  </rect>
</g><g transform="rotate(130.9090909090909 50 50)">
  <rect x="49.5" y="21.5" rx="0.19" ry="0.19" width="1" height="19" fill="#000000">
    <animate attributeName="opacity" values="1;0" keyTimes="0;1" dur="0.7407407407407407s" begin="-0.404040404040404s" repeatCount="indefinite"></animate>
  </rect>
</g><g transform="rotate(163.63636363636363 50 50)">
  <rect x="49.5" y="21.5" rx="0.19" ry="0.19" width="1" height="19" fill="#000000">
    <animate attributeName="opacity" values="1;0" keyTimes="0;1" dur="0.7407407407407407s" begin="-0.33670033670033667s" repeatCount="indefinite"></animate>
  </rect>
</g><g transform="rotate(196.36363636363637 50 50)">
  <rect x="49.5" y="21.5" rx="0.19" ry="0.19" width="1" height="19" fill="#000000">
    <animate attributeName="opacity" values="1;0" keyTimes="0;1" dur="0.7407407407407407s" begin="-0.26936026936026936s" repeatCount="indefinite"></animate>
  </rect>
</g><g transform="rotate(229.0909090909091 50 50)">
  <rect x="49.5" y="21.5" rx="0.19" ry="0.19" width="1" height="19" fill="#000000">
    <animate attributeName="opacity" values="1;0" keyTimes="0;1" dur="0.7407407407407407s" begin="-0.202020202020202s" repeatCount="indefinite"></animate>
  </rect>
</g><g transform="rotate(261.8181818181818 50 50)">
  <rect x="49.5" y="21.5" rx="0.19" ry="0.19" width="1" height="19" fill="#000000">
    <animate attributeName="opacity" values="1;0" keyTimes="0;1" dur="0.7407407407407407s" begin="-0.13468013468013468s" repeatCount="indefinite"></animate>
  </rect>
</g><g transform="rotate(294.54545454545456 50 50)">
  <rect x="49.5" y="21.5" rx="0.19" ry="0.19" width="1" height="19" fill="#000000">
    <animate attributeName="opacity" values="1;0" keyTimes="0;1" dur="0.7407407407407407s" begin="-0.06734006734006734s" repeatCount="indefinite"></animate>
  </rect>
</g><g transform="rotate(327.27272727272725 50 50)">
  <rect x="49.5" y="21.5" rx="0.19" ry="0.19" width="1" height="19" fill="#000000">
    <animate attributeName="opacity" values="1;0" keyTimes="0;1" dur="0.7407407407407407s" begin="0s" repeatCount="indefinite"></animate>
  </rect>
</g>
<!-- [ldio] generated by https://loading.io/ --></svg>